<?xml version="1.0" encoding="utf-8"?>
<!-- Generator: Adobe Illustrator 27.7.0, SVG Export Plug-In . SVG Version: 6.00 Build 0)  -->
<svg version="1.1" id="Capa_1" xmlns="http://www.w3.org/2000/svg" xmlns:xlink="http://www.w3.org/1999/xlink" x="0px" y="0px"
	 viewBox="0 0 501.5 122" style="enable-background:new 0 0 501.5 122;" xml:space="preserve">
<style type="text/css">
	.st0{fill:#231E1F;}
</style>
<g>
	<path class="st0" d="M29.2,13.4C19.6,17.4,9,28.6,5.7,42.6C1.5,60.4,19.1,68,20.5,65.5c1.7-2.9-3.2-3.9-4.2-13.1
		c-1.3-12,4.3-25.3,11.4-31.2c1.3-1.1,1.3,0.4,1.3,3.2c0,5-0.3,50-0.3,59.4c0,12.7-0.5,16.7-1.5,20.7s-2.5,6.7-1.3,7.8
		c1.3,1.2,6.9-1.6,10.2-6.1c3.9-5.4,5.3-11.8,5.5-18.8c0.3-8.4,0.3-21.9,0.3-29.5c0-7,0.1-27.6-0.1-39.9
		C41.7,14.9,33.2,11.7,29.2,13.4 M241.4,85.1c-1,4.6-3.7,9.5-6.8,9.5c-3.9,0-6.2-3.5-6.2-19.2c0-9.2,0.3-13.2,0.4-19.8
		c0.1-3.8,0.2-6.8,0.2-7.4c0-2-3.6-3.1-5.3-3.5c-1.7-0.4-3.3-0.5-4.4-0.5c-1.5,0.1-2.6,1.5-2.6,2.5V49c-2.1-3.2-5.4-5.4-7.6-6.1
		c-6-1.7-12.2-0.2-16.9,6.3c-3.1,4.2-5.6,8.9-6.9,19.2c-0.4,3-0.5,5.8-0.5,8.4c-1.2,7.4-6.7,16-11.1,16c-2.6,0-5.1-5-5.1-15.6
		c0-14.1,0.9-34.3,1.1-36.2c0,0,5.6-0.1,6.7-0.1c2.8,0,5.3,0,9.1-0.1c1.9-0.1,3.7-6.7,1.7-7.6c-0.9-0.4-7.1-0.7-9.5-0.7
		c-2.1,0-7.8-0.5-7.8-0.5s0.5-13.4,0.6-14.8c0.1-1.2-1.4-1.8-2.3-2.2c-2.2-0.9-4.1-1.3-6.4-1.8c-3.2-0.6-4.6,0-4.9,2.6
		c-0.4,4-0.6,15.7-0.6,15.7c-2.3,0-10.2-0.5-12.5-0.5c-2.2,0-4.5,9.1-1.5,9.2c3.4,0.1,9.4,0.3,13.3,0.4c0,0-0.2,20.5-0.2,26.8v2
		c-2.2,11.2-9.8,17.2-9.8,17.2c1.6-7.4-1.7-13-7.8-17.7c-2.2-1.7-6.6-5-11.6-8.6c0,0,2.9-2.8,5.4-8.4c1.8-4,1.9-8.5-2.5-9.5
		c-7.3-1.7-13.3,3.6-15.1,9.3c-1.4,4.3-0.7,7.6,2.1,10.9l0.6,0.8c-1.6,3.1-3.9,7.3-5.8,10.6c-5.3,9.1-9.3,16.2-12.3,16.2
		c-2.4,0-2.4-7.3-2.4-14.1c0-5.9,0.4-14.7,0.8-23.8c0.1-3-1.4-4.7-4-6.3c-1.6-0.9-4.9-2.8-6.8-2.8c-2.9,0-11.2,0.4-19.1,22.8
		c-1,2.8-2.9,8-2.9,8l0.2-27c0-0.6-0.3-1.2-1.1-1.7c-1.3-0.7-4.9-2.2-8-2.2c-1.5,0-2.3,0.7-2.3,2.1l-0.3,42.2c0,3.2,0.1,7,0.4,8.6
		s0.8,3,1.5,3.8c0.6,0.8,1.4,1.4,2.6,1.6c1.1,0.2,7.4,1,7.7-1.3c0.4-2.8,0.4-5.9,3.7-17.2c5.1-17.7,11.7-26.3,14.9-29.4
		c0.6-0.5,1.2-0.6,1.1,0.3c-0.1,3.9-0.6,13.6-0.9,21.8c-0.8,22.1,3.2,26.1,9,26.1c4.4,0,10.7-4.4,17.4-15.4
		c4.2-6.9,8.2-13.6,11.2-18.5c2,1.9,4.3,3.9,6.6,6c5.3,5,7.1,9.7,5.9,14.2c-0.9,3.4-4.2,7-10.1,3.5c-1.7-1-2.5-1.8-4.2-2.9
		c-0.9-0.6-2.4-0.8-3.2-0.2c-2.2,1.7-3.5,3.7-4.2,6.3c-0.7,2.5,1.9,3.9,4.5,5c2.3,1,7.2,1.9,10.3,2c12.2,0.4,22-5.8,28.8-21.9
		c1.2,13.9,6.4,21.7,15.4,21.7c6,0,12.1-7.7,14.7-15.3c0.7,3.1,1.9,5.8,3.3,8c7,10.9,20.5,8.5,27.2-0.7c2.1-2.9,2.4-3.9,2.4-3.9
		c1,8.7,8.1,11.8,12.2,11.8c4.6,0,9.3-2.1,12.6-9.5 M216.9,72.7c-0.3,6.4-1.6,11.7-3.6,15.5c-3.7,7-10.9,9.2-14.1-0.9
		c-2.3-7.3-1.5-17.2-0.6-22.6c1.4-8,5-13.6,10.5-13.1C214.9,52.2,217.7,59.4,216.9,72.7"/>
	<g>
		<path d="M251,105.4c-0.3,0-1.1,0-1.4-2.7l-9.1-59.6c-0.7-4.3-2.7-6.5-6-6.5c-3.6,0-4.9-1.2-4.9-2.2c0-0.7,0.2-1.4,0.5-2.2
			l6.6-12.7c0.8-1.5,1.4-2.1,3.9-2.3c23-1.2,49.6-3.4,58.3-4.1c1.7-0.1,3-0.2,3.1-0.2c1.2,0,1.9,0.5,1.9,1.6c0,1.2-1.2,3.4-4.6,9.4
			c-0.8,1.5-1.8,3.2-2.8,5.1c-0.9,1.6-1.9,2.4-3.2,2.6l-34.4,3.6c-0.8,0-1.6,0.9-1.6,2.6c0,5.8,1,14.4,3.2,14.4
			c1.1,0,8.2-1.3,18.9-3.3c7.3-1.4,14.8-2.8,15.5-2.8c1.5,0,1.7,0.7,1.7,1.3c-0.2,1.1-6.1,16-9.3,16.6l-23.1,4.8
			c-1.2,0.3-2.5,0.8-2.5,2.4c0,0.4,0.2,2.2,0.6,5.5c0.5,4.5,1.2,10.7,1.2,12.2C263.4,91.8,253.2,105.4,251,105.4z"/>
		<path d="M300.5,105.4c-4.6,0-9-2.6-9-5.3c0-16.1,13-76.9,16.2-80c4.8-4.5,11.4-8.2,13.1-8.2s3.4,1,4.5,2.8l43.6,75.5
			c1.3,2.1,1.4,3,1.4,3.5c0,3-7.7,10.2-12.8,10.2c-0.9,0-1.9-0.6-2.9-1.8l-10.4-14.9l-36.9,1.2l-2.8,14.5
			C304.2,105.1,302.4,105.4,300.5,105.4z M316.5,42.5c-1.5,0-3.2,5-6.9,30.4l-0.1,0.6l22.2-1.5c1.3,0,1.5-0.9,1.5-1.4
			c0-0.7-0.5-1.8-1-2.6l-11.8-22.2C319.5,44.1,318.3,42.5,316.5,42.5z"/>
		<path d="M371.5,105.4c-2.6-2.9-12.9-65.1-12.9-73.8c0-3.9,12.9-19,15.1-19c0.7,0,1.4,0.2,1.6,1.9l4.9,45.6
			c0.3,1.6,0.9,1.8,1.2,1.8c0.7,0,1-0.5,6.5-16.6c4.5-13.2,12-35.2,14.1-35.8c3.9,0,11.1,6.6,11.1,8.3c0,1.3-7,18.2-12.2,30.5
			C395.5,61.4,394,65,394,65.5c0,1.4,0.5,2.2,1.8,2.7l35.5,15.5c1.6,0.7,1.9,1.5,1.9,2.5c0,2.1-6.4,12.5-8.3,12.5
			c-1.8,0-9.5-3.4-17-6.6c-9.4-4.1-19.2-8.3-22.1-8.3c-1,0-2,0.6-2,2c0,1.5,0.2,2.8,0.3,4c0.1,1,0.2,1.8,0.2,2.5
			C384.4,96.3,373.2,105,371.5,105.4z"/>
		<path d="M458.7,105.4c-12,0-19.5-9.2-21.1-25.9c-0.4-4-4.7-4.9-8.5-5.7c-3.6-0.8-6.7-1.4-6.7-4.2c0-2.4,2.1-4.4,4.3-6.5
			c2.7-2.6,5.9-5.6,5.9-10.1c0-3.3-3.1-12.5-5.8-20.5c-1.9-5.6-3.7-10.9-3.7-12.1c0-1.7,0.6-3.6,5.5-4.1c7.9-0.7,58.8-4.3,59.3-4.3
			c1.4,0,1.6,0.5,1.6,1.1c0,1.1-3.9,8.1-6.5,12.7l-1.1,1.9c-0.9,1.7-1.6,1.8-4.4,2.1c-0.2,0-21.3,2.4-29.8,3.3
			c-1.1,0.2-2.2,1.1-2.2,2.6c0,0.2,0.7,16.3,6.3,16.3c1,0,6.4-1.3,15.1-3.3c8.9-2.1,19.9-4.7,21.8-4.7c1,0,1.1,0.6,1.1,1.1
			c0,1.9-6.5,15.2-7.8,16c-2,1.1-18,5.6-26.2,7.8c-1.9,0.5-1.9,2.6-1.9,3.3c0,4.2,1.3,15.3,7.5,15.3c7.4,0,19.9-7.6,27.4-12.2
			c2.6-1.6,5-3.1,5.5-3.1c0.9,0,2,6.7,2,10.7C496.3,88.2,473.9,105.4,458.7,105.4z"/>
	</g>
</g>
</svg>
