<?xml version="1.0" encoding="utf-8"?>
<!-- Generator: Adobe Illustrator 27.7.0, SVG Export Plug-In . SVG Version: 6.00 Build 0)  -->
<svg version="1.1" id="Capa_1" xmlns="http://www.w3.org/2000/svg" xmlns:xlink="http://www.w3.org/1999/xlink" x="0px" y="0px"
	 viewBox="0 0 260.5 227.3" style="enable-background:new 0 0 260.5 227.3;" xml:space="preserve">
<style type="text/css">
	.st0{fill:#231E1F;}
</style>
<path class="st0" d="M35.9,18.2c-9.6,4-20.2,15.2-23.5,29.2C8.2,65.2,25.8,72.8,27.2,70.3c1.7-2.9-3.2-3.9-4.2-13.1
	c-1.3-12,4.3-25.3,11.4-31.2c1.3-1.1,1.3,0.4,1.3,3.2c0,5-0.3,50-0.3,59.4c0,12.7-0.5,16.7-1.5,20.7s-2.5,6.7-1.3,7.8
	c1.3,1.2,6.9-1.6,10.2-6.1c3.9-5.4,5.3-11.8,5.5-18.8c0.3-8.4,0.3-21.9,0.3-29.5c0-7,0.1-27.6-0.1-39.9
	C48.4,19.7,39.9,16.5,35.9,18.2 M248.1,89.9c-1,4.6-3.7,9.5-6.8,9.5c-3.9,0-6.2-3.5-6.2-19.2c0-9.2,0.3-13.2,0.4-19.8
	c0.1-3.8,0.2-6.8,0.2-7.4c0-2-3.6-3.1-5.3-3.5S227.1,49,226,49c-1.5,0.1-2.6,1.5-2.6,2.5v2.3c-2.1-3.2-5.4-5.4-7.6-6.1
	c-6-1.7-12.2-0.2-16.9,6.3c-3.1,4.2-5.6,8.9-6.9,19.2c-0.4,3-0.5,5.8-0.5,8.4c-1.2,7.4-6.7,16-11.1,16c-2.6,0-5.1-5-5.1-15.6
	c0-14.1,0.9-34.3,1.1-36.2c0,0,5.6-0.1,6.7-0.1c2.8,0,5.3,0,9.1-0.1c1.9-0.1,3.7-6.7,1.7-7.6c-0.9-0.4-7.1-0.7-9.5-0.7
	c-2.1,0-7.8-0.5-7.8-0.5s0.5-13.4,0.6-14.8c0.1-1.2-1.4-1.8-2.3-2.2c-2.2-0.9-4.1-1.3-6.4-1.8c-3.2-0.6-4.6,0-4.9,2.6
	c-0.4,4-0.6,15.7-0.6,15.7c-2.3,0-10.2-0.5-12.5-0.5c-2.2,0-4.5,9.1-1.5,9.2c3.4,0.1,9.4,0.3,13.3,0.4c0,0-0.2,20.5-0.2,26.8v2
	c-2.2,11.2-9.8,17.2-9.8,17.2c1.6-7.4-1.7-13-7.8-17.7c-2.2-1.7-6.6-5-11.6-8.6c0,0,2.9-2.8,5.4-8.4c1.8-4,1.9-8.5-2.5-9.5
	c-7.3-1.7-13.3,3.6-15.1,9.3c-1.4,4.3-0.7,7.6,2.1,10.9l0.6,0.8c-1.6,3.1-3.9,7.3-5.8,10.6c-5.3,9.1-9.3,16.2-12.3,16.2
	c-2.4,0-2.4-7.3-2.4-14.1c0-5.9,0.4-14.7,0.8-23.8c0.1-3-1.4-4.7-4-6.3c-1.6-0.9-4.9-2.8-6.8-2.8c-2.9,0-11.2,0.4-19.1,22.8
	c-1,2.8-2.9,8-2.9,8l0.2-27c0-0.6-0.3-1.2-1.1-1.7c-1.3-0.7-4.9-2.2-8-2.2c-1.5,0-2.3,0.7-2.3,2.1l-0.3,42.2c0,3.2,0.1,7,0.4,8.6
	s0.8,3,1.5,3.8c0.6,0.8,1.4,1.4,2.6,1.6c1.1,0.2,7.4,1,7.7-1.3c0.4-2.8,0.4-5.9,3.7-17.2C80.4,70,87,61.4,90.2,58.3
	c0.6-0.5,1.2-0.6,1.1,0.3c-0.1,3.9-0.6,13.6-0.9,21.8c-0.8,22.1,3.2,26.1,9,26.1c4.4,0,10.7-4.4,17.4-15.4
	c4.2-6.9,8.2-13.6,11.2-18.5c2,1.9,4.3,3.9,6.6,6c5.3,5,7.1,9.7,5.9,14.2c-0.9,3.4-4.2,7-10.1,3.5c-1.7-1-2.5-1.8-4.2-2.9
	c-0.9-0.6-2.4-0.8-3.2-0.2c-2.2,1.7-3.5,3.7-4.2,6.3c-0.7,2.5,1.9,3.9,4.5,5c2.3,1,7.2,1.9,10.3,2c12.2,0.4,22-5.8,28.8-21.9
	c1.2,13.9,6.4,21.7,15.4,21.7c6,0,12.1-7.7,14.7-15.3c0.7,3.1,1.9,5.8,3.3,8c7,10.9,20.5,8.5,27.2-0.7c2.1-2.9,2.4-3.9,2.4-3.9
	c1,8.7,8.1,11.8,12.2,11.8c4.6,0,9.3-2.1,12.6-9.5 M223.6,77.5c-0.3,6.4-1.6,11.7-3.6,15.5c-3.7,7-10.9,9.2-14.1-0.9
	c-2.3-7.3-1.5-17.2-0.6-22.6c1.4-8,5-13.6,10.5-13.1C221.6,57,224.4,64.2,223.6,77.5"/>
<g>
	<path d="M41.8,209.6c-0.2,0-0.9,0-1.1-2.2L33.4,160c-0.6-3.4-2.2-5.2-4.8-5.2c-2.9,0-3.9-1-3.9-1.8c0-0.6,0.2-1.1,0.4-1.8l5.3-10.1
		c0.6-1.2,1.1-1.7,3.1-1.8c18.3-1,39.5-2.7,46.4-3.3c1.4-0.1,2.4-0.2,2.5-0.2c1,0,1.5,0.4,1.5,1.3c0,1-1,2.7-3.7,7.5
		c-0.6,1.2-1.4,2.5-2.2,4.1c-0.7,1.3-1.5,1.9-2.5,2.1l-27.4,2.9c-0.6,0-1.3,0.7-1.3,2.1c0,4.6,0.8,11.5,2.5,11.5
		c0.9,0,6.5-1,15.1-2.6c5.8-1.1,11.8-2.2,12.3-2.2c1.2,0,1.4,0.6,1.4,1c-0.2,0.9-4.9,12.7-7.4,13.2l-18.4,3.8c-1,0.2-2,0.6-2,1.9
		c0,0.3,0.2,1.8,0.5,4.4c0.4,3.6,1,8.5,1,9.7C51.7,198.8,43.5,209.6,41.8,209.6z"/>
	<path d="M81.2,209.6c-3.7,0-7.2-2.1-7.2-4.2c0-12.8,10.4-61.3,12.9-63.7c3.8-3.6,9.1-6.5,10.4-6.5c1.4,0,2.7,0.8,3.6,2.2l34.7,60.2
		c1,1.7,1.1,2.4,1.1,2.8c0,2.4-6.1,8.1-10.2,8.1c-0.7,0-1.5-0.5-2.3-1.4l-8.3-11.9l-29.4,1l-2.2,11.6
		C84.2,209.3,82.7,209.6,81.2,209.6z M94,159.5c-1.2,0-2.5,4-5.5,24.2l-0.1,0.5l17.7-1.2c1,0,1.2-0.7,1.2-1.1c0-0.6-0.4-1.4-0.8-2.1
		l-9.4-17.7C96.4,160.8,95.4,159.5,94,159.5z"/>
	<path d="M137.8,209.6c-2.1-2.3-10.3-51.9-10.3-58.8c0-3.1,10.3-15.1,12-15.1c0.6,0,1.1,0.2,1.3,1.5l3.9,36.3c0.2,1.3,0.7,1.4,1,1.4
		c0.6,0,0.8-0.4,5.2-13.2c3.6-10.5,9.6-28,11.2-28.5c3.1,0,8.8,5.3,8.8,6.6c0,1-5.6,14.5-9.7,24.3c-4.3,10.4-5.5,13.3-5.5,13.7
		c0,1.1,0.4,1.8,1.4,2.2l28.3,12.3c1.3,0.6,1.5,1.2,1.5,2c0,1.7-5.1,10-6.6,10c-1.4,0-7.6-2.7-13.5-5.3c-7.5-3.3-15.3-6.6-17.6-6.6
		c-0.8,0-1.6,0.5-1.6,1.6c0,1.2,0.2,2.2,0.2,3.2c0.1,0.8,0.2,1.4,0.2,2C148.1,202.3,139.1,209.3,137.8,209.6z"/>
	<path d="M207.3,209.6c-9.6,0-15.5-7.3-16.8-20.6c-0.3-3.2-3.7-3.9-6.8-4.5c-2.9-0.6-5.3-1.1-5.3-3.3c0-1.9,1.7-3.5,3.4-5.2
		c2.2-2.1,4.7-4.5,4.7-8c0-2.6-2.5-10-4.6-16.3c-1.5-4.5-2.9-8.7-2.9-9.6c0-1.4,0.5-2.9,4.4-3.3c6.3-0.6,46.8-3.4,47.2-3.4
		c1.1,0,1.3,0.4,1.3,0.9c0,0.9-3.1,6.5-5.2,10.1l-0.9,1.5c-0.7,1.4-1.3,1.4-3.5,1.7c-0.2,0-17,1.9-23.7,2.6
		c-0.9,0.2-1.8,0.9-1.8,2.1c0,0.2,0.6,13,5,13c0.8,0,5.1-1,12-2.6c7.1-1.7,15.9-3.7,17.4-3.7c0.8,0,0.9,0.5,0.9,0.9
		c0,1.5-5.2,12.1-6.2,12.7c-1.6,0.9-14.3,4.5-20.9,6.2c-1.5,0.4-1.5,2.1-1.5,2.6c0,3.3,1,12.2,6,12.2c5.9,0,15.9-6.1,21.8-9.7
		c2.1-1.3,4-2.5,4.4-2.5c0.7,0,1.6,5.3,1.6,8.5C237.2,195.9,219.4,209.6,207.3,209.6z"/>
</g>
</svg>
