<?xml version="1.0" encoding="utf-8"?>
<!-- Generator: Adobe Illustrator 27.7.0, SVG Export Plug-In . SVG Version: 6.00 Build 0)  -->
<svg version="1.1" id="Capa_1" xmlns="http://www.w3.org/2000/svg" xmlns:xlink="http://www.w3.org/1999/xlink" x="0px" y="0px"
	 viewBox="0 0 580 580" style="enable-background:new 0 0 580 580;" xml:space="preserve">
<style type="text/css">
	.st0{fill:url(#SVGID_1_);}
	.st1{fill:url(#SVGID_00000120535777807960617940000012663112733560666244_);}
	.st2{fill:#FFFFFF;}
</style>
<radialGradient id="SVGID_1_" cx="-34.7976" cy="158.0705" r="544.4944" gradientTransform="matrix(6.123234e-17 -1 1 6.123234e-17 0 580)" gradientUnits="userSpaceOnUse">
	<stop  offset="0" style="stop-color:#FFDD55"/>
	<stop  offset="0.1" style="stop-color:#FFDD55"/>
	<stop  offset="0.5" style="stop-color:#FF543E"/>
	<stop  offset="1" style="stop-color:#C837AB"/>
</radialGradient>
<path class="st0" d="M571.4,290L571.4,290c0-155.4-126-281.4-281.4-281.4h0C134.6,8.6,8.6,134.6,8.6,290v0
	c0,155.4,126,281.4,281.4,281.4h0C445.4,571.4,571.4,445.4,571.4,290z"/>
<radialGradient id="SVGID_00000073000487485632589290000015894561033093446566_" cx="170.2409" cy="493.2217" r="62.8094" gradientTransform="matrix(0.7137 3.5643 -14.6958 2.9425 7072.4956 -1988.8373)" gradientUnits="userSpaceOnUse">
	<stop  offset="0" style="stop-color:#3771C8"/>
	<stop  offset="0.128" style="stop-color:#3771C8"/>
	<stop  offset="1" style="stop-color:#6600FF;stop-opacity:0"/>
</radialGradient>
<path style="fill:url(#SVGID_00000073000487485632589290000015894561033093446566_);" d="M7.9,290.3L7.9,290.3
	c0.4,155.3,126.5,281,281.8,281h0.7c155.3,0,281.4-125.7,281.8-281v0c0.4-155.6-125.3-282-280.9-282.5l-0.7,0
	C134.3,7.3,7.4,134.1,7.9,290.3z"/>
<path class="st2" d="M290,97.9c-52.2,0-58.7,0.2-79.2,1.2c-20.5,1-34.4,4.2-46.6,8.9c-12.7,4.9-23.3,11.5-34,22.1
	s-17.3,21.4-22.1,34c-4.8,12.2-8,26.1-8.9,46.6c-0.9,20.5-1.2,27-1.2,79.2s0.2,58.7,1.2,79.2c1,20.5,4.2,34.4,8.9,46.6
	c4.9,12.7,11.5,23.3,22.1,34c10.6,10.7,21.4,17.3,34,22.1c12.2,4.8,26.1,8,46.6,8.9c20.5,1,27,1.2,79.2,1.2s58.7-0.2,79.2-1.2
	c20.5-1,34.4-4.2,46.6-8.9c12.6-4.9,23.3-11.5,34-22.1c10.7-10.6,17.3-21.4,22.1-34c4.7-12.2,8-26.1,8.9-46.6
	c0.9-20.5,1.2-27,1.2-79.2s-0.2-58.7-1.2-79.2c-1-20.5-4.2-34.4-8.9-46.6c-4.9-12.7-11.5-23.3-22.1-34c-10.7-10.7-21.4-17.3-34-22.1
	c-12.3-4.8-26.2-8-46.6-8.9C348.6,98.1,342.1,97.9,290,97.9L290,97.9z M272.7,132.5c5.1,0,10.8,0,17.3,0c51.3,0,57.4,0.2,77.7,1.1
	c18.7,0.9,28.9,4,35.7,6.6c9,3.5,15.3,7.6,22,14.3c6.7,6.7,10.9,13.2,14.3,22c2.6,6.7,5.8,17,6.6,35.7c0.9,20.3,1.1,26.3,1.1,77.7
	s-0.2,57.4-1.1,77.7c-0.9,18.7-4,28.9-6.6,35.7c-3.5,9-7.6,15.3-14.3,22c-6.7,6.7-13.1,10.9-22,14.3c-6.7,2.6-17,5.8-35.7,6.6
	c-20.3,0.9-26.3,1.1-77.7,1.1s-57.4-0.2-77.7-1.1c-18.7-0.9-28.9-4-35.7-6.6c-9-3.5-15.4-7.6-22-14.3c-6.7-6.7-10.9-13.1-14.3-22
	c-2.6-6.7-5.8-17-6.6-35.7c-0.9-20.3-1.1-26.3-1.1-77.7s0.2-57.4,1.1-77.7c0.9-18.7,4-28.9,6.6-35.7c3.5-9,7.6-15.4,14.3-22
	c6.7-6.7,13.2-10.9,22-14.3c6.7-2.6,17-5.8,35.7-6.6C230.1,132.7,236.9,132.5,272.7,132.5L272.7,132.5z M392.5,164.4
	c-12.8,0-23,10.3-23,23c0,12.8,10.3,23,23,23c12.8,0,23-10.3,23-23l0,0C415.6,174.8,405.2,164.4,392.5,164.4L392.5,164.4z
	 M290,191.4c-54.5,0-98.6,44.2-98.6,98.6s44.1,98.6,98.6,98.6s98.6-44.2,98.6-98.6S344.4,191.4,290,191.4L290,191.4z M290,226
	c35.4,0,64,28.7,64,64c0,35.4-28.7,64-64,64c-35.4,0-64-28.7-64-64C225.9,254.7,254.6,226,290,226z"/>
</svg>
